<?xml version="1.0" encoding="utf-8"?>
<!-- Generator: Adobe Illustrator 22.0.1, SVG Export Plug-In . SVG Version: 6.00 Build 0)  -->
<svg version="1.1" id="Layer_1" xmlns="http://www.w3.org/2000/svg" xmlns:xlink="http://www.w3.org/1999/xlink" x="0px" y="0px"
	 viewBox="0 0 506.4 852.5" style="enable-background:new 0 0 506.4 852.5;" xml:space="preserve">
<style type="text/css">
	.st0{fill:#FFFFFF;}
</style>
<title>Asset 3</title>
<g id="Layer_2_1_">
	<g id="Layer_1-2">
		<path class="st0" d="M103.9,838.6c11.8-3.1,23.8-5.1,27.8-7.1c11-5.5,18.1-9.5,29.4-9.5c7.2,0,7.7-4.5,7.7-6.5c0-1.9,0.7-3.6,2-5
			c2.8-2.8,14-1,14-1c-4-5-9.6-8.6-11-9c-7-2-14.4,1.9-22.6,6.1c-6.2,3.1-12.3,4.6-17.6,0.1s-5.6-11.1-3.3-17.5
			c9.8-27.4,24.8-52.6,44.3-74.3c9.7-10.9,12.4-23.7,15.3-36.7c1.1-5.2,2.9-10.6-0.2-16.5c-7.3-14.1-9.8-29.7-12.2-45.2
			c-0.7-4.8,1-7.1,6.7-4.8c7.3,3,14.8,5.5,22.4,7.5c5.7,1.5,12.1,3.1,17.1-1.2c7.9-6.9,24.3-5.8,29.9,3.5c5.6,9.3,11,19.2,14.7,29.5
			c6.6,18.4,13.6,36.7,21.5,54.6c2.7,6.2,6.5,10.7,14.3,12.2c5,1,8.4,7.9,15,7.5c0.7,0,2.1,2.5,2.2,4c1.1,15,4.6,29.7,3.5,45
			c-0.7,10.6-3.9,20.2-6.3,30.2c-2.7,11.4-31.1,17.4-34.6,12c-3.5,0-11.2,0.3-13.5,11.6c2.9-1.8,4-2.9,7.1-2.9
			c0.2,0.6,1.4,1.3,0.5,2.1c-3.5,3.2-4.8,9.7-4.8,9.7s5.5-3.8,10.6-4.3c0.9-0.1,1.9-0.1,2.8,0c0,0,6.3,0.5,5.4,1.1
			c-5.9,4.3-7.1,13-7.1,13s10.6-8.6,16-5.9c2.1,1,4.4,1.2,6.7,0.7c2.3-0.4,4.6-1.1,6.8-2.1c10.1-4.2,20.1-9.3,32-7.7
			s24.1,6.1,34.1-4.5c2.4-3.2,8.3-2.2,8.3-2.2s-5.4-5.3-9-6.1c-5.1-1.2-10.3-1.2-15.4,0.1c-7.7,2.1-13.8-1.8-19.4-5.9
			c-5.2-3.8-2.6-5.5-1.5-8.8c1-2.8,0.1-5.9-2.1-7.8c-5.2-4.9-3.8-11.8-4.8-17.7c-2.5-13.9-1.3-28.3-4.7-42.3
			c-1.6-6.9-4.6-17,7.3-20.5c1.7-0.5,2.8-3.3,3.9-5.1c3.3-5.7,4-12.1,5.3-19.6c5.3,3.9,8.7,9.3,13.5,13.3c19,15.6,39.7,26.7,65.5,24
			c8.6-0.9,13.7-4.9,13.5-13.8c-0.2-8.2,3.1-9.8,9.6-5.6c12.1,7.8,25.7,10.6,39.5,9.8c18.2-1,19.1-9.3,12.9-23.1
			c-0.5-0.8-1.1-1.6-1.7-2.3c-12.8-19.4-28.4-36.3-45-52.5c-2.3-2.2-6-3.8-5.9-8.3c6.7-0.6,12.1,3.4,18.1,4.5c5.7,1,12.8,6,16.9-1.4
			c4.2-7.5-0.6-13.1-7.4-16.9c-1.3-0.8-2.3-2.2-3.5-3.2c-13.5-10.9-25.3-24.6-42.2-30.1c-18.9-6.1-33.4-18.4-48.3-30.3
			c-3.9-3.1-6.5-7.7-9.8-11.5c-2-2.4-2.1-5.3,0.4-6.7c7-3.9,4.6-9.5,3.1-14.8c-2.5-9.5-5.6-18.7-9.4-27.7
			c-5.2-11.9-11.9-24.6-10.5-37c2.9-25.1-15.4-39.7-24.6-58.7c-0.6-1.1-1.7-1.9-2.9-2.2c-6.5-0.5-10-5.3-13.7-9.5
			c-17-19.6-36.1-37.1-55.2-54.4c-12.6-11.4-27.3-20.8-42.6-28.8c-7.8-4-7.9-7.3-1.7-13.4c5.4-5.2,12.8-6.9,18.7-11.1
			c25.3-18,52.6-29.5,84.6-24.9c1.3,0.2,2.5,0.2,3.8,0c2.4-0.3,5.9,1,6.6-2.1c0.8-3.6-3.2-4.1-5.5-5.2c-11.8-5.6-24.5-8.3-37.1-10.9
			c-12.4-2.6-24.8-4.6-37.6-4.1c-2.4,0.1-5.5,0.5-6.3-2.8c-0.6-2.6,1.8-3.8,3.6-5.1c5.6-4,11-7.8,17.8-10.1
			c21.7-7.6,43.6-5.8,65.6-3.3c2,0.2,4.5,2.5,5.7-0.6c1-2.5-1.4-4.1-3-5.5c-6.2-5.1-13.6-7.9-20.9-10.9c-17-6.9-35.8-6.7-53-14.7
			c2.3-3,5.7-3.8,8.7-5.3c6.3-3,12.9-4.4,19.5-7.1c9.2-3.7,12.6-11.3,9.2-16.7c-7-11-17.3-13.3-28.7-13.6
			c-6.5-0.2-13.1-1.5-19.8-1.3c-4.8,0.1-7.8-1.5-11.2-5.2c-12.2-13.1-22.7-27.8-37.2-38.9c-26.4-20.2-57.5-32.8-83.3-53.9
			c-19.8-16.2-44-22.9-68-29.6C37,4.5,25-1,11.5,0.2C3.7,0.9,0.1,3.9,0,11.8c-0.2,13.9,17.6,35.9,33.2,41.3c9.3,3.2,17.9,7.8,23,17
			c9.5,17,19.6,33.8,28.3,51.2s3,43.5-10.4,57.6c-8.3,8.7-15.8,18-23.3,27.4c-3.5,4.4-3.3,16.4-2.1,22.1c1.3,6.5,10.6,12.5,20,8
			c11.2-5.3,15.7-13.2,26.5-17.3c2-0.8,4.4-1.7,6.3-0.1s0.6,3.4-0.1,5.1c-4.9,12.3-10.3,24.5-14.4,37.1c-4.5,14-11.8,27.1-13.9,42
			c-2.4,17.5-9.4,31.6-25.6,41.9c-16.5,10.5-28.2,28.1-29.5,46.9c-1.9,27.7-7.8,55.8-0.9,83.7c4.1,16.5,8.5,33,18.5,47.2
			c3.5,5,9,9.7,15,8.5c6.5-1.3,3.7-8.5,3.9-13.2c0.3-8.1,4.7-6.7,8.4-3.4c11,9.9,22.9,19.2,31.7,30.8c11.8,15.4,21.8,32.3,28.1,51
			c7,20.9,19.2,39.6,25,61.2c4.2,15.7-1.3,32.9,8.3,47.6c0.7,1,0.3,3.2-0.4,4.5c-4.6,10-9.4,19.9-14.2,29.8
			c-12.3,25.5-31.3,47.1-42.7,73.2c-3.1,7.1-9.1,13.2-18.2,13.3c-10.5,0.1-19,2.3-26,2.3c-3,0-6-1-7-3c-11,1-14,5-17,10
			c7-3,14-4,18-3c-8,2-12,11-12,11s12-6,16-3c-3.1,3.3-4.8,7.5-5,12c0,0,11-9,17-6C79.6,854.5,94.2,841.1,103.9,838.6z"/>
	</g>
</g>
</svg>
